<?xml version="1.0" encoding="utf-8"?>
<svg id="master-artboard" viewBox="0 0 2666.6667 2666.6667" xmlns="http://www.w3.org/2000/svg" height="2666.666748046875px" width="2666.666748046875px" version="1.1"><rect id="ee-background" x="0" y="0" width="2666.666748046875" height="2666.666748046875" style="fill: rgb(255, 242, 125); fill-opacity: 0; pointer-events: none;"/><metadata id="metadata8"/><defs id="defs6"><clipPath id="clipPath20" clipPathUnits="userSpaceOnUse"><path id="path18" d="m 12169.2,12030.8 c -422.5,0 -827.5,-128.5 -1170.6,-371.1 l -259.6,-181.1 c -31.3,12.9 -65.6,20.1 -101.5,20.1 -148.1,0 -268.1,-120 -268.1,-268.1 0,-148 120,-268 268.1,-268 148,0 268,120 268,268 0,8.5 -0.5,16.9 -1.2,25.3 l 253.6,176.9 c 296.8,209.9 646.5,320.8 1011.3,320.8 966.9,0 1753.5,-786.7 1753.5,-1753.6 0,-966.9 -786.6,-1753.6 -1753.5,-1753.6 -363.9,0 -712.7,110.4 -1009,319.2 L 8075.19,10836 c 1.43,11.2 2.41,22.6 2.41,34.2 0,148 -120.02,268.1 -268.06,268.1 -148.04,0 -268.07,-120.1 -268.07,-268.1 0,-148.1 120.03,-268.1 268.07,-268.1 32.67,0 63.85,6.2 92.8,16.9 L 10997,8341.5 l 2.2,-1.7 c 343.5,-242.4 748.1,-370.6 1170,-370.6 1119.8,0 2030.8,911 2030.8,2030.8 0,1119.8 -911,2030.8 -2030.8,2030.8 z"/></clipPath><linearGradient id="linearGradient30" spreadMethod="pad" gradientTransform="matrix(6658.52,0,0,-6658.52,7541.47,10000)" gradientUnits="userSpaceOnUse" y2="0" x2="1" y1="0" x1="0"><stop id="stop22" offset="0" style="stop-opacity:1;stop-color:#ec008c"/><stop id="stop24" offset="0.16129" style="stop-opacity:1;stop-color:#ec008c"/><stop id="stop26" offset="0.510753" style="stop-opacity:1;stop-color:#8d198f"/><stop id="stop28" offset="1" style="stop-opacity:1;stop-color:#f14624"/></linearGradient><clipPath id="clipPath40" clipPathUnits="userSpaceOnUse"><path id="path38" d="m 9355.17,9031.1 c -148.06,0 -268.07,-120 -268.07,-268.1 0,-8.1 0.51,-16.1 1.22,-24 l -246.27,-171.8 c -296.75,-209.8 -646.42,-320.8 -1011.23,-320.8 -966.92,0 -1753.56,786.7 -1753.56,1753.6 0,966.9 786.64,1753.6 1753.56,1753.6 363.87,0 712.72,-110.4 1008.96,-319.2 L 11937.9,9154.3 c -1.1,-10.1 -1.9,-20.4 -1.9,-30.8 0,-148.1 120.1,-268.1 268.1,-268.1 148,0 268,120 268,268.1 0,148 -120,268 -268,268 -33.9,0 -66.3,-6.5 -96.1,-18 l -3105,2285.1 -2.24,1.6 c -343.49,242.5 -748.05,370.6 -1169.94,370.6 -1119.79,0 -2030.82,-911 -2030.82,-2030.8 0,-1119.8 911.03,-2030.8 2030.82,-2030.8 422.47,0 827.5,128.5 1170.57,371.1 l 251.07,175.1 c 31.64,-13.1 66.3,-20.4 102.71,-20.4 148.03,0 268.04,120 268.04,268 0,148.1 -120.01,268.1 -268.04,268.1 z"/></clipPath><linearGradient id="linearGradient50" spreadMethod="pad" gradientTransform="matrix(-6599.67,224.989,224.989,6599.67,12406.7,9844)" gradientUnits="userSpaceOnUse" y2="0" x2="1" y1="0" x1="0"><stop id="stop42" offset="0" style="stop-opacity:1;stop-color:#ec008c"/><stop id="stop44" offset="0.16129" style="stop-opacity:1;stop-color:#ec008c"/><stop id="stop46" offset="0.510753" style="stop-opacity:1;stop-color:#8d198f"/><stop id="stop48" offset="1" style="stop-opacity:1;stop-color:#f14624"/></linearGradient><radialGradient id="gradient-0" gradientUnits="objectBoundingBox" cx="0.5" cy="0.5" r="0.5">
                <stop offset="0" style="stop-color: #ff8075"/>
                <stop offset="1" style="stop-color: #ff230f"/>
              </radialGradient><radialGradient id="gradient-1" gradientUnits="objectBoundingBox" cx="0.5" cy="0.5" r="0.5">
                <stop offset="0" style="stop-color: #ff8075"/>
                <stop offset="1" style="stop-color: #ff230f"/>
              </radialGradient><linearGradient id="gradient-2" gradientUnits="userSpaceOnUse" x1="1333.3333740234375" y1="0" x2="1333.3333740234375" y2="2666.666748046875">
                <stop offset="0" style="stop-color: #ffffff"/>
                <stop offset="1" style="stop-color: #cccccc"/>
              </linearGradient><radialGradient id="gradient-3" gradientUnits="objectBoundingBox" cx="0.5" cy="0.5" r="0.5">
                <stop offset="0" style="stop-color: #fff27d"/>
                <stop offset="1" style="stop-color: #ffe817"/>
              </radialGradient><linearGradient id="gradient-4" gradientUnits="userSpaceOnUse" x1="10870.735107421875" y1="7969.19970703125" x2="10870.735107421875" y2="12030.7998046875">
                <stop offset="0" style="stop-color: #3640ff"/>
                <stop offset="1" style="stop-color: #000acf"/>
              </linearGradient><linearGradient id="gradient-5" gradientUnits="userSpaceOnUse" x1="9136.0498046875" y1="7969.19921875" x2="9136.0498046875" y2="12030.798828125">
                <stop offset="0" style="stop-color: #ff668c"/>
                <stop offset="1" style="stop-color: #ff0040"/>
              </linearGradient><linearGradient id="gradient-6" gradientUnits="userSpaceOnUse" x1="113.39999771118164" y1="175.10000610351562" x2="113.39999771118164" y2="231.90000915527344">
                <stop offset="0" style="stop-color: #333333"/>
                <stop offset="1" style="stop-color: #000000"/>
              </linearGradient><radialGradient id="gradient-7" gradientUnits="objectBoundingBox" cx="0.5" cy="0.5" r="0.5">
                <stop offset="0" style="stop-color: #90d4d1"/>
                <stop offset="1" style="stop-color: #47b7b2"/>
              </radialGradient><radialGradient id="gradient-8" gradientUnits="objectBoundingBox" cx="0.5" cy="0.5" r="0.5">
                <stop offset="0" style="stop-color: #90d4d1"/>
                <stop offset="1" style="stop-color: #47b7b2"/>
              </radialGradient><radialGradient id="gradient-9" gradientUnits="objectBoundingBox" cx="0.2634413242340088" cy="0.5107524991035461" r="0.5">
                <stop offset="0" style="stop-color: #90d4d1"/>
                <stop offset="1" style="stop-color: #47b7b2"/>
              </radialGradient><style id="ee-google-fonts">@import url(https://fonts.googleapis.com/css?family=Aldrich:400);</style></defs><g id="g14" transform="matrix(0.13333331048488617, 0, 0, -0.13333331048488617, 0, 2666.666748046875)"><g clip-path="url(#clipPath20)" id="g16"><path id="path32" style="fill: rgb(212, 30, 33); fill-opacity: 1; fill-rule: nonzero; stroke: none;" d="m 12169.2,12030.8 c -422.5,0 -827.5,-128.5 -1170.6,-371.1 l -259.6,-181.1 c -31.3,12.9 -65.6,20.1 -101.5,20.1 -148.1,0 -268.1,-120 -268.1,-268.1 0,-148 120,-268 268.1,-268 148,0 268,120 268,268 0,8.5 -0.5,16.9 -1.2,25.3 l 253.6,176.9 c 296.8,209.9 646.5,320.8 1011.3,320.8 966.9,0 1753.5,-786.7 1753.5,-1753.6 0,-966.9 -786.6,-1753.6 -1753.5,-1753.6 -363.9,0 -712.7,110.4 -1009,319.2 L 8075.19,10836 c 1.43,11.2 2.41,22.6 2.41,34.2 0,148 -120.02,268.1 -268.06,268.1 -148.04,0 -268.07,-120.1 -268.07,-268.1 0,-148.1 120.03,-268.1 268.07,-268.1 32.67,0 63.85,6.2 92.8,16.9 L 10997,8341.5 l 2.2,-1.7 c 343.5,-242.4 748.1,-370.6 1170,-370.6 1119.8,0 2030.8,911 2030.8,2030.8 0,1119.8 -911,2030.8 -2030.8,2030.8"/></g></g><g id="g34" transform="matrix(0.13333331048488617, 0, 0, -0.13333331048488617, 0, 2666.666748046875)"><g clip-path="url(#clipPath40)" id="g36"><path id="path52" style="fill: rgb(28, 110, 212); fill-opacity: 1; fill-rule: nonzero; stroke: none;" d="m 9355.17,9031.1 c -148.06,0 -268.07,-120 -268.07,-268.1 0,-8.1 0.51,-16.1 1.22,-24 l -246.27,-171.8 c -296.75,-209.8 -646.42,-320.8 -1011.23,-320.8 -966.92,0 -1753.56,786.7 -1753.56,1753.6 0,966.9 786.64,1753.6 1753.56,1753.6 363.87,0 712.72,-110.4 1008.96,-319.2 L 11937.9,9154.3 c -1.1,-10.1 -1.9,-20.4 -1.9,-30.8 0,-148.1 120.1,-268.1 268.1,-268.1 148,0 268,120 268,268.1 0,148 -120,268 -268,268 -33.9,0 -66.3,-6.5 -96.1,-18 l -3105,2285.1 -2.24,1.6 c -343.49,242.5 -748.05,370.6 -1169.94,370.6 -1119.79,0 -2030.82,-911 -2030.82,-2030.8 0,-1119.8 911.03,-2030.8 2030.82,-2030.8 422.47,0 827.5,128.5 1170.57,371.1 l 251.07,175.1 c 31.64,-13.1 66.3,-20.4 102.71,-20.4 148.03,0 268.04,120 268.04,268 0,148.1 -120.01,268.1 -268.04,268.1"/></g></g><g transform="matrix(5.505204200744629, 0, 0, 5.505204200744629, 714.0864671251652, -220.71504112072233)"><path fill="#CCCCCC" d="M113.4,182.1c27.5,0,49.8,22.4,49.8,49.8h7c0-31.3-25.5-56.8-56.8-56.8s-56.8,25.5-56.8,56.8h7&#10;&#9;C63.5,204.4,85.9,182.1,113.4,182.1z" transform="matrix(1, 0, 0, 1, 5.684341886080802e-14, 0)" style="fill: rgb(212, 182, 34);"/></g></svg>